<?xml version="1.0" encoding="UTF-8" standalone="no"?>
<!DOCTYPE svg PUBLIC "-//W3C//DTD SVG 1.1//EN" "http://www.w3.org/Graphics/SVG/1.1/DTD/svg11.dtd">
<svg width="100%" height="100%" viewBox="0 0 2000 2000" version="1.1" xmlns="http://www.w3.org/2000/svg" xmlns:xlink="http://www.w3.org/1999/xlink" xml:space="preserve" xmlns:serif="http://www.serif.com/" style="fill-rule:evenodd;clip-rule:evenodd;stroke-linejoin:round;stroke-miterlimit:2;">
    <rect id="Artboard1" x="0" y="0" width="2000" height="2000" style="fill:none;"/>
    <g id="Artboard11" serif:id="Artboard1">
        <g transform="matrix(0.795463,0,0,0.795463,129.976784,235.958211)">
            <g transform="matrix(1.34458,0,0,1.34458,-843.419294,1167.544762)">
                <circle cx="1269.5" cy="436.5" r="101.5" style="fill:rgb(0,167,233);"/>
            </g>
            <g transform="matrix(1.25713,0,0,1.25713,-163.397739,-296.630191)">
                <path d="M776.318,1298.517C713.836,1345.568 636.136,1373.47 551.97,1373.47C345.846,1373.47 178.5,1206.124 178.5,1000C178.5,793.876 345.846,626.53 551.97,626.53C636.136,626.53 713.836,654.432 776.318,701.483L776.318,626.53L925.439,626.53L925.439,1373.47L776.318,1373.47L776.318,1298.517ZM776.318,1000C776.318,876.179 675.791,775.652 551.97,775.652C428.148,775.652 327.621,876.179 327.621,1000C327.621,1123.821 428.148,1224.348 551.97,1224.348C675.791,1224.348 776.318,1123.821 776.318,1000Z" style="fill:rgb(0,167,233);"/>
            </g>
        </g>
        <g transform="matrix(-0.795463,0,0,0.795463,1870.023216,235.958211)">
            <g transform="matrix(-1.34458,0,0,1.34458,2570.469537,-420.210669)">
                <circle cx="1269.5" cy="436.5" r="101.5" style="fill:rgb(228,135,79);"/>
            </g>
            <g transform="matrix(-1.25713,0,0,1.25713,2350.862643,-296.630191)">
                <path d="M1223.682,701.483C1286.164,654.432 1363.864,626.53 1448.03,626.53C1525.345,626.53 1597.205,650.075 1656.823,690.379C1756.149,757.526 1821.5,871.192 1821.5,1000C1821.5,1128.808 1756.149,1242.474 1656.823,1309.621C1686.256,1335.33 1719.382,1356.915 1755.295,1373.47L1458,1373.47L1458,1373.339C1454.687,1373.426 1451.364,1373.47 1448.03,1373.47C1363.864,1373.47 1286.164,1345.568 1223.682,1298.517L1223.682,1373.47L1074.561,1373.47L1074.561,626.53L1223.682,626.53L1223.682,701.483ZM1223.682,1000C1223.682,1123.821 1324.209,1224.348 1448.03,1224.348C1451.371,1224.348 1454.695,1224.275 1458,1224.13C1496.547,1222.441 1532.581,1211.006 1563.698,1192.23C1628.805,1152.944 1672.379,1081.52 1672.379,1000C1672.379,918.48 1628.805,847.056 1563.698,807.77C1529.913,787.384 1490.331,775.652 1448.03,775.652C1324.209,775.652 1223.682,876.179 1223.682,1000Z" style="fill:rgb(228,135,79);"/>
            </g>
        </g>
    </g>
</svg>
